<?xml version="1.0"?>
<svg version="1.1" xmlns="http://www.w3.org/2000/svg" width="60px" height="50px" style=""><path fill="#" d="M0.2978515625,28.4423828125q0-1.0595703125,0.09521484375-2.12158203125t0.39794921875-2.09228515625q0.087890625-0.3076171875,0.2294921875-0.60791015625t0.3466796875-0.53466796875t0.48828125-0.380859375t0.673828125-0.146484375l0.1025390625,0.009765625q0.419921875,0.05859375,0.6201171875,0.33935546875t0.2001953125,0.70068359375q0,0.1123046875-0.02685546875,0.28076171875t-0.08544921875,0.32470703125t-0.15869140625,0.26611328125t-0.25146484375,0.10986328125q-0.068359375-0.009765625-0.12451171875-0.0244140625t-0.10498046875-0.0634765625q0.078125-0.1708984375,0.13916015625-0.3564453125t0.06103515625-0.4248046875q0-0.087890625-0.0146484375-0.224609375t-0.05615234375-0.27099609375t-0.10986328125-0.234375t-0.1904296875-0.10009765625q-0.3076171875,0-0.517578125,0.34423828125t-0.3515625,0.87890625t-0.2099609375,1.181640625t-0.10498046875,1.25t-0.04150390625,1.0888671875t-0.0048828125,0.68603515625q0,0.234375-0.0048828125,0.517578125l0,0.0634765625q0.0048828125,0.2490234375,0.0341796875,0.4736328125q0.0390625,0.25390625,0.1513671875,0.439453125t0.3515625,0.21484375q0.0732421875,0.009765625,0.1416015625,0.009765625q0.283203125,0,0.5126953125-0.1611328125q0.283203125-0.2001953125,0.5029296875-0.52001953125t0.390625-0.703125t0.31494140625-0.72509765625t0.28076171875-0.56640625t0.283203125-0.224609375q0.048828125,0,0.146484375,0.01953125t0.09765625,0.0927734375q0,0.01953125-0.009765625,0.0537109375t-0.0244140625,0.0537109375q-0.1318359375,0.517578125-0.33447265625,1.07421875t-0.517578125,1.01318359375t-0.771484375,0.74462890625t-1.09619140625,0.2880859375q-0.458984375,0-0.74462890625-0.17333984375t-0.439453125-0.4638671875t-0.2099609375-0.65673828125t-0.05615234375-0.7421875z M5.501318359375,28.7109375l0-0.458984375q0-0.2490234375,0.01220703125-0.70556640625t0.03173828125-1.0009765625t0.0537109375-1.13525390625t0.078125-1.11572265625t0.10498046875-0.93994140625t0.13916015625-0.615234375q0.048828125-0.1123046875,0.1611328125-0.1416015625t0.2197265625-0.029296875q0.1708984375,0,0.30029296875,0.07568359375t0.12939453125,0.27587890625l-0.087890625,0.09765625q-0.1708984375,1.1279296875-0.2197265625,2.265625t-0.068359375,2.275390625q0.1220703125-0.1904296875,0.27587890625-0.37353515625t0.341796875-0.32470703125t0.4052734375-0.22705078125t0.47607421875-0.08544921875q0.33203125,0,0.54931640625,0.2001953125t0.35888671875,0.52001953125t0.2099609375,0.71533203125t0.10498046875,0.791015625t0.05126953125,0.74951171875t0.0439453125,0.58837890625q-0.0927734375,0.126953125-0.2734375,0.126953125l-0.0146484375,0q-0.078125,0-0.1708984375-0.01953125t-0.1220703125-0.09765625l0.009765625,0.009765625q-0.068359375-0.1513671875-0.0927734375-0.43701171875t-0.0390625-0.6298828125t-0.05126953125-0.70556640625t-0.10986328125-0.654296875t-0.21484375-0.4833984375t-0.380859375-0.2001953125l-0.029296875,0q-0.2880859375,0-0.4833984375,0.17578125q-0.205078125,0.185546875-0.33203125,0.48828125t-0.1953125,0.673828125t-0.10498046875,0.71533203125t-0.05615234375,0.625t-0.048828125,0.41259765625q-0.029296875,0.1123046875-0.17333984375,0.14892578125t-0.24658203125,0.03662109375q-0.2392578125,0-0.390625-0.13671875q-0.1123046875-0.2685546875-0.1318359375-0.6689453125t-0.01953125-0.78125z M10.17255859375,28.37890625q0-0.341796875,0.07568359375-0.8056640625t0.25634765625-0.87890625t0.47607421875-0.70556640625t0.74462890625-0.29052734375q0.419921875,0,0.6298828125,0.24169921875t0.2099609375,0.65185546875q0,0.2685546875-0.10009765625,0.58837890625t-0.28564453125,0.60546875t-0.439453125,0.47607421875t-0.56640625,0.1904296875l-0.126953125-0.009765625q0,0.1318359375,0.0390625,0.35400390625t0.11474609375,0.44189453125t0.1953125,0.3857421875t0.29052734375,0.166015625q0.2490234375,0,0.478515625-0.2001953125t0.4345703125-0.4443359375t0.380859375-0.4443359375t0.322265625-0.2001953125q0.078125,0,0.1611328125,0.0244140625t0.0927734375,0.13671875q0,0.068359375-0.03662109375,0.1123046875t-0.06591796875,0.09765625q-0.1513671875,0.2587890625-0.32958984375,0.4931640625t-0.40283203125,0.4248046875t-0.49072265625,0.30029296875t-0.58837890625,0.10986328125q-0.419921875,0-0.6982421875-0.14892578125t-0.44921875-0.400390625t-0.24658203125-0.5810546875t-0.07568359375-0.69091796875z M11.04658203125,28.0078125l0.13671875,0.1220703125q0.09765625,0.087890625,0.1953125,0.0390625t0.17578125-0.17822265625t0.14404296875-0.31982421875t0.1171875-0.390625t0.07568359375-0.390625t0.0244140625-0.3173828125l0-0.166015625t-0.0146484375-0.17578125t-0.05126953125-0.13916015625t-0.11474609375-0.07080078125q-0.0244140625-0.0048828125-0.0439453125-0.0048828125q-0.166015625,0-0.283203125,0.2099609375q-0.126953125,0.234375-0.205078125,0.56884765625t-0.1123046875,0.68603515625t-0.0439453125,0.52734375z"/><path fill="#" d="M17.3076171875,29.1796875q0.029296875-0.791015625,0.05126953125-1.62109375t0.04150390625-1.63818359375t0.029296875-1.56982421875t0.009765625-1.4208984375q0.009765625-0.1318359375,0.2294921875-0.2099609375t0.52490234375-0.11474609375t0.64453125-0.04638671875t0.60302734375-0.009765625q0.05859375,0,0.244140625-0.0048828125l0.0927734375,0q0.1416015625,0,0.2978515625,0.009765625q0.205078125,0.0146484375,0.35888671875,0.0634765625t0.15380859375,0.1416015625q0,0.068359375-0.0537109375,0.10986328125t-0.12451171875,0.06103515625t-0.146484375,0.0244140625t-0.10498046875,0.0048828125q-0.458984375,0-0.908203125-0.0146484375q-0.1220703125-0.0048828125-0.2490234375-0.0048828125q-0.33203125,0-0.673828125,0.029296875q0.01953125,0.05859375,0.03173828125,0.35400390625t0.01220703125,0.66650390625t-0.0048828125,0.72509765625t0,0.54443359375l0,1.26953125q0.1513671875-0.009765625,0.2978515625-0.009765625l0.29296875,0l0.1953125-0.009765625q0.09765625-0.0048828125,0.205078125-0.0048828125q0.1123046875,0,0.2294921875,0.0048828125q0.234375,0.009765625,0.42724609375,0.05615234375t0.19287109375,0.16357421875q0,0.087890625-0.0732421875,0.12939453125t-0.16357421875,0.06103515625t-0.1708984375,0.01953125l-0.09033203125,0q-0.2783203125,0-0.57861328125-0.01953125t-0.55908203125-0.01953125q-0.048828125,0.01953125-0.10498046875,0.0146484375t-0.10009765625-0.0048828125q0,0.732421875-0.0146484375,1.45751953125t-0.0341796875,1.44287109375q0,0.1416015625-0.17822265625,0.185546875t-0.33935546875,0.0439453125q-0.1806640625,0-0.28564453125-0.0439453125t-0.14892578125-0.14404296875t-0.0537109375-0.26611328125q-0.0048828125-0.0927734375-0.009765625-0.205078125q0-0.0927734375,0.0048828125-0.2001953125z M21.290380859375,28.0615234375q0-0.44921875,0.10498046875-0.88134765625t0.17822265625-0.86181640625q0.01953125-0.1123046875,0.15380859375-0.13916015625t0.22705078125-0.02685546875q0.1611328125,0,0.2587890625,0.048828125q0.0390625,0.01953125,0.0732421875,0.0439453125t0.0341796875,0.0634765625q0,0.419921875-0.10009765625,0.8203125t-0.10009765625,0.849609375q0,0.1513671875,0.02197265625,0.28564453125t0.04150390625,0.26611328125l0.029296875,0.1416015625q0,0.0390625,0.0048828125,0.068359375t0.0146484375,0.068359375q0,0.087890625-0.12451171875,0.11962890625t-0.21728515625,0.03173828125q-0.1416015625,0-0.26123046875-0.05615234375t-0.18798828125-0.19287109375l-0.068359375-0.1416015625q-0.05859375-0.1123046875-0.05859375-0.25146484375t-0.0244140625-0.25634765625z M21.602880859375,25.1220703125l0-0.0927734375q0-0.2294921875,0.11474609375-0.41015625t0.34423828125-0.1806640625q0.029296875,0,0.05615234375,0.0048828125t0.05615234375,0.0048828125q0.05859375,0.009765625,0.15380859375,0.04638671875t0.09521484375,0.11474609375l0,0.009765625q-0.01953125,0.0390625-0.0244140625,0.08056640625t-0.0244140625,0.07080078125l0.009765625-0.009765625q-0.05859375,0.1513671875-0.09521484375,0.244140625t-0.08056640625,0.14892578125t-0.10986328125,0.08056640625t-0.18798828125,0.0244140625q-0.01953125,0-0.068359375-0.0048828125t-0.10498046875-0.01953125t-0.09521484375-0.0390625t-0.0390625-0.0732421875z M23.42255859375,28.0078125q0-0.2685546875,0.05126953125-0.57373046875t0.17578125-0.55908203125t0.34423828125-0.419921875t0.5615234375-0.166015625q0.2294921875,0,0.4443359375,0.07568359375t0.4052734375,0.20751953125q0.05859375-0.09765625,0.185546875-0.11962890625t0.224609375-0.02197265625q0.0390625,0,0.10986328125,0.0048828125t0.13916015625,0.029296875t0.11962890625,0.05859375t0.06103515625,0.09765625q0.0390625,0.341796875,0.0537109375,0.68115234375t0.0439453125,0.67626953125q0.048828125,0.6298828125,0.1513671875,1.2451171875t0.1025390625,1.2451171875q0,0.2978515625-0.02685546875,0.64453125t-0.1416015625,0.64208984375t-0.33447265625,0.49072265625t-0.6103515625,0.1953125q-0.3515625,0-0.53955078125-0.12451171875t-0.33935546875-0.41748046875q0.009765625-0.09765625,0.12451171875-0.12939453125t0.19775390625-0.03173828125q0.078125,0,0.15869140625,0.0146484375t0.12939453125,0.048828125l0.1220703125,0.078125q0.1806640625-0.37109375,0.2197265625-0.810546875t0.0390625-0.849609375q0-0.341796875-0.0341796875-0.67626953125t-0.068359375-0.67138671875q-0.341796875,0.6201171875-1.0400390625,0.6201171875q-0.322265625,0-0.52490234375-0.13671875t-0.3125-0.3466796875t-0.1513671875-0.4736328125t-0.04150390625-0.52734375z M24.02314453125,28.0517578125q0,0.1220703125,0.009765625,0.31494140625t0.05126953125,0.37841796875t0.11962890625,0.31982421875t0.2197265625,0.13427734375q0.2685546875,0,0.4248046875-0.2099609375t0.24658203125-0.50048828125t0.14404296875-0.6005859375t0.13671875-0.51025390625q-0.009765625-0.068359375-0.009765625-0.13427734375l0-0.13427734375q-0.1123046875-0.2099609375-0.3271484375-0.36376953125t-0.4443359375-0.20751953125q-0.029296875-0.0048828125-0.0537109375-0.0048828125q-0.13671875,0-0.224609375,0.1611328125q-0.1123046875,0.1953125-0.17578125,0.46630859375t-0.09033203125,0.53466796875t-0.02685546875,0.3564453125z M27.498095703125,28.271484375q0-0.2783203125,0.07080078125-0.57373046875t0.224609375-0.5322265625t0.38818359375-0.3857421875t0.56640625-0.14892578125q0.2490234375,0,0.52490234375,0.08544921875t0.50537109375,0.244140625t0.37353515625,0.38818359375t0.14404296875,0.5126953125q0,0.341796875-0.12451171875,0.6494140625t-0.34912109375,0.54931640625t-0.52490234375,0.380859375t-0.65185546875,0.13916015625q-0.2880859375,0-0.5029296875-0.10498046875t-0.35888671875-0.28076171875t-0.21484375-0.4150390625t-0.07080078125-0.5078125z M28.215869140625,28.26171875q0,0.087890625,0.02685546875,0.2587890625t0.08056640625,0.33447265625t0.13916015625,0.283203125t0.20751953125,0.10986328125q0.2587890625-0.029296875,0.42724609375-0.16845703125t0.2734375-0.33935546875t0.146484375-0.4345703125t0.04150390625-0.4443359375q0-0.2685546875-0.10498046875-0.44921875t-0.34423828125-0.29296875q0,0.009765625,0.009765625,0.009765625t0.009765625-0.009765625l-0.1220703125-0.029296875q-0.048828125-0.01953125-0.11962890625-0.0439453125t-0.13916015625-0.107421875q-0.1904296875,0.068359375-0.29541015625,0.17578125t-0.15869140625,0.26123046875t-0.06591796875,0.36865234375t-0.01220703125,0.517578125z"/></svg>
